<?xml version="1.0" encoding="iso-8859-1"?>
<!-- Generator: Adobe Illustrator 19.0.0, SVG Export Plug-In . SVG Version: 6.00 Build 0)  -->
<svg version="1.1" id="Layer_1" xmlns="http://www.w3.org/2000/svg" xmlns:xlink="http://www.w3.org/1999/xlink" x="0px" y="0px"
	 viewBox="0 0 508.027 508.027" style="enable-background:new 0 0 508.027 508.027;" xml:space="preserve">
<g>
	<g>
		<path d="M496.516,1.7c-0.9-0.2-8.8-1.7-22-1.7c-34.3,0-102,10.2-170.7,78.8c-17.3,17.2-26.3,40.4-26,64.3l-55.3,55.2
			c-36.4,26.7-75.9,60.9-114.2,99.2c-36.3,36.1-69.2,73.6-95.3,108.3c-18.4,24.6-17.5,59.7,4.3,81.6c28,28,63.4,24.2,85.2,8.1
			c35-25.8,72.4-58.9,108.7-95.2c38.3-38.2,72.6-77.6,99.3-113.9l55.2-55.1c0.4,0,36.8,1.7,64.5-26.1c26.7-26.8,27.5-52.4,28.3-77.3
			c0.9-29.1,1.8-59.1,45.1-102.4C514.816,14.4,501.616,2.7,496.516,1.7z M191.316,380.3c-35.4,35.3-72.1,67-105.7,92.5
			c-10.1,7.7-31.7,11.3-47.6-4.6c-12.2-12.2-12.7-31.8-2.5-45.5c25.3-33.7,57.3-70.1,92.6-105.4c34.2-34.2,69.3-65,102.1-89.8
			l51,50.9C256.416,311.2,225.516,346.2,191.316,380.3z M299.916,257.2l-48.3-48.2l36.8-36.7l48.3,48.2L299.916,257.2z M430.416,127
			c-0.7,22.8-1.2,39.3-20,58.1c-23.1,23.1-49,17.7-51.8,17.3l-52.3-52.2c-2.6-18.9,3.7-38,17.3-51.6c54.6-54.3,107.5-67.6,139.6-70
			C432.116,68.7,431.216,100.6,430.416,127z"/>
	</g>
</g>
<g>
</g>
<g>
</g>
<g>
</g>
<g>
</g>
<g>
</g>
<g>
</g>
<g>
</g>
<g>
</g>
<g>
</g>
<g>
</g>
<g>
</g>
<g>
</g>
<g>
</g>
<g>
</g>
<g>
</g>
</svg>
