<?xml version="1.0" encoding="iso-8859-1"?>
<!-- Generator: Adobe Illustrator 19.0.0, SVG Export Plug-In . SVG Version: 6.00 Build 0)  -->
<svg version="1.1" id="Layer_1" xmlns="http://www.w3.org/2000/svg" xmlns:xlink="http://www.w3.org/1999/xlink" x="0px" y="0px"
	 viewBox="0 0 512.001 512.001" style="enable-background:new 0 0 512.001 512.001;" xml:space="preserve">
<g>
	<g>
		<path d="M206.739,412.908c-2.044-12.659-8.895-23.766-19.291-31.274c-10.397-7.507-23.096-10.518-35.754-8.474
			c-12.66,2.043-23.767,8.894-31.274,19.291c-7.507,10.396-10.516,23.094-8.474,35.753c2.042,12.659,8.894,23.766,19.291,31.274
			c8.27,5.972,17.996,9.098,28.003,9.098c2.572,0,5.161-0.207,7.751-0.624c12.659-2.043,23.766-8.894,31.274-19.291
			C205.772,438.266,208.781,425.567,206.739,412.908z M179.838,435.357c-3.953,5.474-9.801,9.082-16.468,10.158
			c-6.665,1.077-13.353-0.509-18.828-4.463c-5.475-3.953-9.083-9.801-10.158-16.468c-1.075-6.667,0.509-13.353,4.462-18.828
			c3.953-5.475,9.801-9.083,16.468-10.158c1.364-0.219,2.727-0.328,4.082-0.328c5.269,0,10.392,1.647,14.748,4.791
			c5.474,3.953,9.082,9.801,10.158,16.468S183.791,429.882,179.838,435.357z"/>
	</g>
</g>
<g>
	<g>
		<path d="M428.782,369.93c-17.366-26.062-46.672-41.269-77.73-40.758l-29.175-39.361l69.315-88.19
			c40.311-51.682,46.933-122.711,16.87-180.953l-7.493-14.517c-1.842-3.569-5.431-5.9-9.441-6.132
			c-4.01-0.232-7.844,1.67-10.085,5.002l-124.77,185.49L130.945,5.002c-2.247-3.325-6.083-5.211-10.084-4.983
			c-4.005,0.236-7.59,2.567-9.43,6.132l-7.494,14.517c-30.063,58.243-23.441,129.271,16.864,180.945l68.565,88.072l-28.511,39.485
			c-30.99-0.505-60.289,14.723-77.637,40.76c-26.09,39.158-17.702,92.782,19.096,122.082C118.751,505.1,138.543,512,159.097,512
			c4.199,0,8.433-0.289,12.672-0.87c25.009-3.434,46.918-16.594,61.69-37.052c17.459-24.178,21.901-55.693,12.15-83.697
			l10.353-14.339l10.421,14.357c-9.743,28.001-5.299,59.506,12.157,83.679c14.773,20.459,36.682,33.618,61.69,37.053
			c4.241,0.582,8.473,0.87,12.672,0.87c20.552,0,40.347-6.901,56.783-19.987C446.485,462.713,454.873,409.088,428.782,369.93z
			 M138.729,187.643c-34.292-43.963-40.403-104.114-15.873-154.016L242.59,210.853l-10.568,15.711l-29.199,43.409L138.729,187.643z
			 M223.568,382.081c-2.344,3.245-2.807,7.486-1.218,11.163c9.574,22.143,6.77,48.018-7.317,67.528
			c-11.101,15.373-27.563,25.26-46.357,27.841c-18.781,2.581-37.32-2.527-52.205-14.381c-27.64-22.007-33.937-62.286-14.34-91.699
			c12.832-19.257,34.357-30.646,57.238-30.646c2.016,0,4.048,0.089,6.081,0.268c3.992,0.352,7.869-1.42,10.212-4.667l28.469-39.427
			l9.854,7.116l38.052,27.477L223.568,382.081z M265.711,324.494l-11.04-7.972l-9.445-6.82l121.396-166.835
			c3.693-5.075,2.573-12.182-2.502-15.875c-5.076-3.693-12.183-2.573-15.875,2.502L226.8,296.397l-9.665-6.979l6.93-10.302
			l41.659-61.933c0.001-0.001,0.001-0.003,0.002-0.005l123.438-183.51c24.509,49.895,18.392,110.022-15.866,153.943l-74.645,94.971
			c-0.001,0.002-0.003,0.003-0.005,0.006L265.711,324.494z M395.53,474.232c-14.885,11.853-33.426,16.96-52.205,14.381
			c-18.793-2.581-35.255-12.468-46.357-27.842c-14.087-19.509-16.892-45.384-7.317-67.527c1.593-3.685,1.124-7.936-1.234-11.185
			l-18.448-25.412l7.009-9.707l30.341-38.603l29.104,39.267c2.355,3.176,6.186,4.903,10.13,4.553
			c25.098-2.219,49.356,9.423,63.318,30.377C429.467,411.946,423.169,452.225,395.53,474.232z"/>
	</g>
</g>
<g>
	<g>
		<path d="M391.583,392.452c-7.51-10.397-18.617-17.248-31.276-19.291c-12.662-2.042-25.358,0.967-35.753,8.474
			c-10.397,7.507-17.248,18.614-19.291,31.274c-2.043,12.66,0.966,25.358,8.474,35.753c7.507,10.397,18.614,17.248,31.274,19.291
			c2.59,0.418,5.178,0.624,7.751,0.624c10.004,0,19.733-3.126,28.003-9.098c10.396-7.507,17.248-18.614,19.291-31.274
			C402.099,415.545,399.09,402.847,391.583,392.452z M377.617,424.584c-1.076,6.667-4.684,12.515-10.158,16.468
			c-5.475,3.953-12.16,5.54-18.828,4.463c-6.667-1.076-12.516-4.684-16.468-10.158c-3.953-5.475-5.539-12.161-4.462-18.828
			s4.684-12.515,10.158-16.468c4.356-3.145,9.477-4.791,14.746-4.791c1.353,0,2.718,0.109,4.081,0.328
			c6.667,1.076,12.516,4.684,16.469,10.158C377.108,411.23,378.694,417.919,377.617,424.584z"/>
	</g>
</g>
<g>
	<g>
		<path d="M387.658,106.674c-0.148-0.716-0.364-1.432-0.648-2.125c-0.284-0.682-0.636-1.341-1.045-1.955
			c-0.42-0.625-0.898-1.205-1.42-1.727c-0.523-0.523-1.102-1-1.727-1.42c-0.614-0.409-1.273-0.761-1.955-1.045
			c-0.693-0.284-1.398-0.5-2.125-0.648c-1.466-0.295-2.977-0.295-4.443,0c-0.727,0.148-1.443,0.364-2.125,0.648
			c-0.693,0.284-1.352,0.636-1.966,1.045c-0.625,0.42-1.205,0.898-1.727,1.42c-0.523,0.523-1,1.102-1.409,1.727
			c-0.409,0.614-0.761,1.273-1.045,1.955c-0.284,0.693-0.5,1.409-0.648,2.125c-0.148,0.739-0.227,1.489-0.227,2.227
			s0.08,1.489,0.227,2.216c0.148,0.727,0.364,1.443,0.648,2.125c0.284,0.693,0.636,1.352,1.045,1.966
			c0.409,0.625,0.886,1.205,1.409,1.727c0.523,0.523,1.102,1,1.727,1.409c0.614,0.409,1.273,0.761,1.966,1.045
			c0.682,0.284,1.398,0.5,2.125,0.648c0.727,0.148,1.477,0.227,2.216,0.227c0.75,0,1.489-0.08,2.227-0.227
			c0.727-0.148,1.432-0.364,2.125-0.648c0.682-0.284,1.341-0.636,1.955-1.045c0.625-0.409,1.205-0.886,1.727-1.409
			c0.523-0.523,1-1.102,1.42-1.727c0.409-0.614,0.761-1.273,1.045-1.966c0.284-0.682,0.5-1.398,0.648-2.125
			c0.148-0.727,0.216-1.477,0.216-2.216S387.806,107.413,387.658,106.674z"/>
	</g>
</g>
<g>
</g>
<g>
</g>
<g>
</g>
<g>
</g>
<g>
</g>
<g>
</g>
<g>
</g>
<g>
</g>
<g>
</g>
<g>
</g>
<g>
</g>
<g>
</g>
<g>
</g>
<g>
</g>
<g>
</g>
</svg>
